# xmcd
#
# Track frame offsets: 
#        150
#        15824
#        30421
#        46045
#        61293
#        76919
#        89020
#        108671
#        128434
#        143548
#        163824
#
# Disc length: 2367 seconds
#
# Revision: 0
# Processed by: cddbd v1.5.2PL0 Copyright (c) Steve Scherf et al.
# Submitted via: ExactAudioCopy v1.0b4
#
DISCID=79093d0b
DTITLE=Magic Slim and The Teardrops - Gravel Road  (LP)
DYEAR=1990
DGENRE=Blues
TTITLE0=Cold Women With Warm Hearts
TTITLE1=Gravel Road
TTITLE2=Hard To Handle
TTITLE3=Bad Luck Is Fallin'
TTITLE4=Pretty Girls Everywhere
TTITLE5=Further On Up The Road
TTITLE6=Mustang Sally
TTITLE7=Prisoner Of Love
TTITLE8=Before You Accuse Me
TTITLE9=Please Don't Waste My Time
TTITLE10=Slim's Hideaway
EXTD=
EXTT0=
EXTT1=
EXTT2=
EXTT3=
EXTT4=
EXTT5=
EXTT6=
EXTT7=
EXTT8=
EXTT9=
EXTT10=
PLAYORDER=
